<svg xmlns="http://www.w3.org/2000/svg" viewBox="0 0 26 26">
  <path d="M0.90625 -0.03125C0.863281 -0.0234375 0.820313 -0.0117188 0.78125 0C0.40625 0.0664063 0.105469 0.339844 0 0.703125C-0.105469 1.070313 0.00390625 1.460938 0.28125 1.71875L8 9.40625L18.59375 20L24.28125 25.71875C24.679688 26.117188 25.320313 26.117188 25.71875 25.71875C26.117188 25.320313 26.117188 24.679688 25.71875 24.28125L20 18.5625C21.222656 17.015625 22 15.085938 22 13L22 12C22 12 21.898438 11 21 11C20.101563 11 20 12 20 12L20 13C20 14.574219 19.460938 15.992188 18.59375 17.15625L17.1875 15.75C17.6875 14.980469 18 14.070313 18 13.09375L18 5C18 2.199219 15.800781 0 13 0C10.199219 0 8 2.199219 8 5L8 6.5625L1.71875 0.28125C1.511719 0.0585938 1.210938 -0.0546875 0.90625 -0.03125 Z M 13 2C14.347656 2 15.445313 2.816406 15.84375 4L15 4C14.398438 4 14 4.398438 14 5C14 6 15 6 15 6L16 6L16 7L15 7C14.398438 7 14 7.398438 14 8C14 9 15 9 15 9L16 9L16 10L11.4375 10L10.4375 9L11 9C11 9 12 9 12 8C12 7.398438 11.601563 7 11 7L10 7L10 6L11 6C11 6 12 6 12 5C12 4.398438 11.601563 4 11 4L10.15625 4C10.554688 2.816406 11.652344 2 13 2 Z M 5 11C4.101563 11 4 12 4 12L4 13C4 17.308594 6.980469 20.84375 11 21.75L11 24L8 24C7 24 7 25 7 25L7 26L19 26L19 25C19 24.398438 18.601563 24 18 24L15 24L15 21.78125C15.660156 21.632813 16.296875 21.398438 16.90625 21.09375L15.40625 19.59375C14.605469 19.792969 13.800781 20 13 20C9.101563 20 6 16.898438 6 13L6 12C6 12 5.898438 11 5 11 Z M 8 12.1875L8 13C8 15.800781 10.199219 18 13 18C13.300781 18 13.488281 18.007813 13.6875 17.90625Z" fill="#5B5B5B" />
</svg>